<svg width="308" height="74" viewBox="0 0 308 74" fill="none" xmlns="http://www.w3.org/2000/svg">
<path d="M41.71 9.82V22.15H15.97V35.47H35.23V47.44H15.97V73H0.58V9.82H41.71ZM57.5388 17.56C54.8388 17.56 52.6188 16.78 50.8788 15.22C49.1988 13.6 48.3588 11.62 48.3588 9.28C48.3588 6.88 49.1988 4.9 50.8788 3.34C52.6188 1.72 54.8388 0.909995 57.5388 0.909995C60.1788 0.909995 62.3388 1.72 64.0188 3.34C65.7588 4.9 66.6288 6.88 66.6288 9.28C66.6288 11.62 65.7588 13.6 64.0188 15.22C62.3388 16.78 60.1788 17.56 57.5388 17.56ZM65.1888 22.78V73H49.7988V22.78H65.1888ZM106.942 22.24C112.822 22.24 117.502 24.16 120.982 28C124.522 31.78 126.292 37 126.292 43.66V73H110.992V45.73C110.992 42.37 110.122 39.76 108.382 37.9C106.642 36.04 104.302 35.11 101.362 35.11C98.4217 35.11 96.0817 36.04 94.3417 37.9C92.6017 39.76 91.7317 42.37 91.7317 45.73V73H76.3417V22.78H91.7317V29.44C93.2917 27.22 95.3917 25.48 98.0317 24.22C100.672 22.9 103.642 22.24 106.942 22.24Z" fill="black"/>
<path d="M160.656 9.82C167.316 9.82 173.136 11.14 178.116 13.78C183.096 16.42 186.936 20.14 189.636 24.94C192.396 29.68 193.776 35.17 193.776 41.41C193.776 47.59 192.396 53.08 189.636 57.88C186.936 62.68 183.066 66.4 178.026 69.04C173.046 71.68 167.256 73 160.656 73H136.986V9.82H160.656ZM159.666 59.68C165.486 59.68 170.016 58.09 173.256 54.91C176.496 51.73 178.116 47.23 178.116 41.41C178.116 35.59 176.496 31.06 173.256 27.82C170.016 24.58 165.486 22.96 159.666 22.96H152.376V59.68H159.666ZM249.717 47.08C249.717 48.52 249.627 50.02 249.447 51.58H214.617C214.857 54.7 215.847 57.1 217.587 58.78C219.387 60.4 221.577 61.21 224.157 61.21C227.997 61.21 230.667 59.59 232.167 56.35H248.547C247.707 59.65 246.177 62.62 243.957 65.26C241.797 67.9 239.067 69.97 235.767 71.47C232.467 72.97 228.777 73.72 224.697 73.72C219.777 73.72 215.397 72.67 211.557 70.57C207.717 68.47 204.717 65.47 202.557 61.57C200.397 57.67 199.317 53.11 199.317 47.89C199.317 42.67 200.367 38.11 202.467 34.21C204.627 30.31 207.627 27.31 211.467 25.21C215.307 23.11 219.717 22.06 224.697 22.06C229.557 22.06 233.877 23.08 237.657 25.12C241.437 27.16 244.377 30.07 246.477 33.85C248.637 37.63 249.717 42.04 249.717 47.08ZM233.967 43.03C233.967 40.39 233.067 38.29 231.267 36.73C229.467 35.17 227.217 34.39 224.517 34.39C221.937 34.39 219.747 35.14 217.947 36.64C216.207 38.14 215.127 40.27 214.707 43.03H233.967ZM280.426 58.6L291.316 22.78H307.696L289.876 73H270.886L253.066 22.78H269.536L280.426 58.6Z" fill="#45AAF2"/>
</svg>
